#!OML:ASF H:\IndianDance\Patient Classification 1\Patient 1\Session 1\dancer.ASF
:FULLY-SPECIFIED
:DEGREES
3625
root -10.7179 14.373 -5.37384 1266.66 2.50207 -175.798
lowerback 7.53257 3.44753 2.40489
upperback -6.67671 5.17019 -0.643159
thorax -11.1379 2.37272 -2.92853
lowerneck -16.751 0.0159241 -1.14968
upperneck 16.7787 -1.26389 6.48893
head 8.01176 -0.129753 2.1895
rclavicle 4.76338e-014 5.1684e-015
rhumerus -28.5364 0.090185 -42.3712
rradius 146.861
rwrist -41.1184
rhand 3.11283 13.9989
rfingers 7.12502
rthumb 28.5684 -13.8383
lclavicle 4.76338e-014 5.1684e-015
lhumerus -23.7858 11.6382 22.4923
lradius 138.23
lwrist 52.8374
lhand 25.4287 9.40884
lfingers 7.12502
lthumb 49.5545 -329.138
rfemur -26.0379 -17.1895 33.2128
rtibia 55.436
rfoot -32.7377 -14.468
rtoes 14.6282
lfemur -56.2128 35.9667 -12.389
ltibia 93.0824
lfoot -6.08574 -8.74212
ltoes -19.7644
3626
root -10.7065 14.4453 -5.41756 1266.93 1.97375 -175.921
lowerback 7.32643 3.32992 2.28711
upperback -6.82476 5.01852 -0.626118
thorax -11.2011 2.31687 -2.81431
lowerneck -16.7216 -0.272881 -1.19449
upperneck 16.5951 -1.58191 6.27874
head 7.95705 -0.302836 2.08759
rclavicle 1.55549e-014 -2.38542e-015
rhumerus -30.9829 -5.40003 -41.4971
rradius 147.453
rwrist -46.7512
rhand 6.29015 12.5837
rfingers 7.12502
rthumb 31.5998 -14.7017
lclavicle 1.55549e-014 -2.38542e-015
lhumerus -25.389 15.4162 21.6188
lradius 135.364
lwrist 53.5505
lhand 23.9355 8.39732
lfingers 7.12502
lthumb 48.1821 -329.475
rfemur -25.7805 -17.3198 33.0911
rtibia 54.6223
rfoot -31.8777 -14.317
rtoes 13.6438
lfemur -56.1252 35.5671 -13.2154
ltibia 93.0725
lfoot -5.32509 -9.31954
ltoes -20.8518
3627
root -10.6964 14.5199 -5.46186 1267.19 1.4834 -176.053
lowerback 7.10672 3.21877 2.17808
upperback -6.96189 4.8752 -0.618026
thorax -11.241 2.26486 -2.71449
lowerneck -16.7395 -0.546887 -1.2444
upperneck 16.4615 -1.88651 6.08487
head 7.92646 -0.467155 1.99467
rclavicle -5.84178e-014 -1.55052e-014
rhumerus -33.4753 -10.8229 -40.1803
rradius 147.417
rwrist -52.153
rhand 9.12729 11.2675
rfingers 7.12502
rthumb 34.2981 -15.4496
lclavicle -5.84178e-014 -1.55052e-014
lhumerus -26.8023 18.6467 20.7922
lradius 132.075
lwrist 53.6671
lhand 22.3306 7.09481
lfingers 7.12502
lthumb 46.6997 -330.108
rfemur -25.5597 -17.4437 32.9297
rtibia 53.916
rfoot -30.8919 -14.0795
rtoes 12.314
lfemur -55.8926 35.1033 -13.9939
ltibia 92.6259
lfoot -4.38047 -9.81835
ltoes -21.8613
3628
root -10.6883 14.5965 -5.50626 1267.44 1.0521 -176.197
lowerback 6.8843 3.11302 2.09168
upperback -7.0859 4.73979 -0.621278
thorax -11.2606 2.21471 -2.64004
lowerneck -16.8002 -0.800716 -1.31886
upperneck 16.368 -2.16784 5.92539
head 7.91593 -0.617663 1.92055
rclavicle 2.06736e-014 1.82882e-014
rhumerus -36.0159 -15.9262 -38.5413
rradius 146.77
rwrist -57.0311
rhand 11.3581 10.1942
rfingers 7.12502
rthumb 36.4133 -16.0197
lclavicle 2.06736e-014 1.82882e-014
lhumerus -27.9801 21.411 20.0215
lradius 128.415
lwrist 53.4854
lhand 20.7165 5.66558
lfingers 7.12502
lthumb 45.2019 -330.915
rfemur -25.4001 -17.5827 32.7222
rtibia 53.3601
rfoot -29.7748 -13.7082
rtoes 10.7069
lfemur -55.5004 34.581 -14.7025
ltibia 91.7248
lfoot -3.14403 -10.321
ltoes -22.5936
3629
root -10.6827 14.6741 -5.55013 1267.68 0.70336 -176.351
lowerback 6.6703 3.01664 2.0323
upperback -7.19345 4.61739 -0.636123
thorax -11.2624 2.16792 -2.5951
lowerneck -16.8993 -1.03216 -1.41541
upperneck 16.3075 -2.42115 5.79415
head 7.92232 -0.752578 1.86298
rclavicle -8.04084e-014 7.55382e-015
rhumerus -38.5574 -20.519 -36.774
rradius 145.586
rwrist -61.1813
rhand 12.831 9.39593
rfingers 7.12502
rthumb 37.8062 -16.4558
lclavicle -8.04084e-014 7.55382e-015
lhumerus -28.9023 23.7873 19.3238
lradius 124.46
lwrist 53.296
lhand 19.2133 4.27506
lfingers 7.12502
lthumb 43.8015 -331.768
rfemur -25.3274 -17.7559 32.4652
rtibia 52.9991
rfoot -28.521 -13.1777
rtoes 8.8809
lfemur -54.9303 34.0198 -15.3414
ltibia 90.3437
lfoot -1.58251 -10.8257
ltoes -23.0166
3630
root -10.6806 14.7522 -5.59325 1267.9 0.454725 -176.52
lowerback 6.47944 2.93408 1.9984
upperback -7.28254 4.513 -0.663606
thorax -11.2532 2.12629 -2.58158
lowerneck -17.0306 -1.23859 -1.53103
upperneck 16.2696 -2.64231 5.69045
head 7.9411 -0.869983 1.82143
rclavicle -5.6927e-014 8.74653e-015
rhumerus -41.0105 -24.5384 -35.0255
rradius 143.946
rwrist -64.5892
rhand 13.4705 8.86564
rfingers 7.12502
rthumb 38.4101 -16.8208
lclavicle -5.6927e-014 8.74653e-015
lhumerus -29.5405 25.8382 18.6954
lradius 120.271
lwrist 53.3317
lhand 17.8075 3.10587
lfingers 7.12502
lthumb 42.4874 -332.47
rfemur -25.3633 -18.0077 32.1513
rtibia 52.872
rfoot -27.1301 -12.4544
rtoes 6.96489
lfemur -54.1513 33.4257 -15.9002
ltibia 88.4661
lfoot 0.344739 -11.309
ltoes -22.9974
3631
root -10.6822 14.8307 -5.63551 1268.09 0.320318 -176.713
lowerback 6.31583 2.8694 1.9886
upperback -7.35241 4.43124 -0.706613
thorax -11.2345 2.09174 -2.60259
lowerneck -17.1765 -1.41558 -1.65445
upperneck 16.2407 -2.82276 5.59516
head 7.96404 -0.967271 1.78856
rclavicle -2.88735e-014 3.18055e-015
rhumerus -43.2462 -27.9685 -33.4399
rradius 141.945
rwrist -67.3294
rhand 13.2308 8.51667
rfingers 7.12502
rthumb 38.1838 -17.2323
lclavicle -2.88735e-014 3.18055e-015
lhumerus -29.885 27.6296 18.1378
lradius 115.913
lwrist 53.7805
lhand 16.4608 2.35708
lfingers 7.12502
lthumb 41.2248 -332.798
rfemur -25.538 -18.3708 31.773
rtibia 53.0195
rfoot -25.6019 -11.5329
rtoes 5.09494
lfemur -53.1354 32.7929 -16.3756
ltibia 86.0942
lfoot 2.64465 -11.6458
ltoes -22.38
3632
root -10.6881 14.9084 -5.67643 1268.25 0.312716 -176.926
lowerback 6.18197 2.82301 1.99472
upperback -7.40055 4.37201 -0.755115
thorax -11.2066 2.06518 -2.64267
lowerneck -17.3221 -1.55253 -1.74839
upperneck 16.2033 -2.94773 5.46854
head 7.98094 -1.0392 1.74678
rclavicle -2.20899e-014 -1.66979e-014
rhumerus -45.134 -30.8693 -32.1059
rradius 139.664
rwrist -69.6435
rhand 12.2541 8.23663
rfingers 7.12502
rthumb 37.261 -17.7599
lclavicle -2.20899e-014 -1.66979e-014
lhumerus -29.9627 29.2235 17.6308
lradius 111.455
lwrist 54.7264
lhand 15.1512 2.11857
lfingers 7.12502
lthumb 39.9939 -332.654
rfemur -25.8757 -18.8596 31.3379
rtibia 53.4655
rfoot -23.9446 -10.4058
rtoes 3.51857
lfemur -51.8525 32.1325 -16.7495
ltibia 83.3026
lfoot 5.13272 -11.7757
ltoes -20.4869
3633
root -10.6983 14.9804 -5.71477 1268.37 0.439419 -177.152
lowerback 6.07858 2.805 2.00704
upperback -7.42676 4.34843 -0.801603
thorax -11.1702 2.05402 -2.69021
lowerneck -17.4696 -1.65473 -1.80433
upperneck 16.1565 -3.02267 5.29186
head 7.9915 -1.08956 1.68789
rclavicle -3.01904e-014 6.75868e-015
rhumerus -46.5803 -33.3239 -31.0609
rradius 137.175
rwrist -71.8065
rhand 10.7522 7.89542
rfingers 7.12502
rthumb 35.8394 -18.4604
lclavicle -3.01904e-014 6.75868e-015
lhumerus -29.7842 30.6765 17.2101
lradius 106.96
lwrist 56.1583
lhand 13.9229 2.42705
lfingers 7.12502
lthumb 38.8368 -332.006
rfemur -26.4076 -19.4658 30.8637
rtibia 54.2289
rfoot -22.158 -9.14017
rtoes 2.30063
lfemur -50.3028 31.4927 -17.0344
ltibia 80.2624
lfoot 7.21193 -11.7955
ltoes -19.1863
